<svg xmlns="" width="600" height="600"><path stroke-width="0" fill="rgb(0, 0, 0)" opacity="1.0" d="M 240.4513702392578 294.7134094238281 L 240.55625915527344 297.2086486816406 Q 234.61395263671875 303.3812255859375 225.69052124023438 305.13812255859375 Q 215.58209228515625 305.07586669921875 200.7798309326172 305.6220703125 Q 190.21316528320312 311.8608703613281 189.79165649414062 311.9873962402344 Q 184.2285919189453 309.3632507324219 186.3687286376953 304.2364807128906 Q 188.85389709472656 301.927001953125 190.64633178710938 298.96063232421875 Q 194.92324829101562 294.52197265625 198.3382110595703 289.0150146484375 Q 200.47288513183594 284.6490783691406 201.98751831054688 275.1820068359375 L 210.798583984375 277.80242919921875 Q 210.91700744628906 277.2408447265625 211.1901092529297 276.22540283203125 Q 211.37387084960938 275.68896484375 211.72381591796875 274.86639404296875 Q 212.10089111328125 273.51251220703125 212.4134979248047 271.9781494140625 Q 211.26998901367188 273.98907470703125 211.85519409179688 272.6766662597656 Q 212.54959106445312 271.3035888671875 213.31423950195312 269.6031494140625 Q 211.34779357910156 268.6619567871094 209.0114288330078 267.6622619628906 Q 207.02798461914062 266.44622802734375 205.11795043945312 265.0597839355469 L 203.67767333984375 264.1001892089844 Q 202.6078643798828 266.1160888671875 201.68418884277344 268.8143005371094 Q 201.30169677734375 271.0259704589844 201.01817321777344 273.3484191894531 Q 194.0675048828125 286.5169372558594 189.46963500976562 296.3098449707031 Q 181.4917449951172 303.77239990234375 180.12588500976562 311.1643981933594 Q 179.54989624023438 316.9627685546875 181.93592834472656 321.5748596191406 Q 184.97598266601562 331.52606201171875 190.66036987304688 340.1214294433594 Q 193.79774475097656 340.2433776855469 202.29046630859375 336.1720886230469 Q 205.80673217773438 332.7037048339844 208.92337036132812 330.51318359375 Q 209.73033142089844 330.362548828125 213.51568603515625 327.3402099609375 Q 215.42843627929688 326.4107666015625 217.3551025390625 325.9309387207031 Q 228.96400451660156 323.2613830566406 237.5231170654297 311.9929504394531 Q 245.1850128173828 300.6690673828125 251.17457580566406 286.1326904296875 Q 252.16424560546875 284.3509521484375 253.1936492919922 281.080810546875 Q 254.05807495117188 278.4412841796875 255.0448455810547 275.6891174316406 Q 258.7934265136719 258.7076416015625 251.3429718017578 240.87388610839844 L 241.66578674316406 269.56640625 Q 241.02830505371094 275.7995300292969 241.67037963867188 282.8663024902344 Q 241.2530517578125 288.43975830078125 240.4513702392578 294.7134094238281" />
  <path stroke-width="0" fill="rgb(0, 0, 0)" opacity="1.0" d="M 264.2432861328125 249.09735107421875 L 269.9363708496094 332.3428039550781 L 278.9869079589844 315.1095275878906 L 273.4397888183594 232.0101318359375 L 264.2432861328125 249.09735107421875" />
    <path stroke-width="0" fill="rgb(0, 0, 0)" opacity="1.0" d="M 353.5807800292969 301.23529052734375 Q 353.5807800292969 302.2575988769531 352.7049255371094 302.69573974609375 Q 346.4279479980469 305.7626953125 339.2021179199219 307.51519775390625 Q 331.9762878417969 309.26776123046875 324.23956298828125 310.8742370605469 Q 328.180908203125 306.9310302734375 332.19525146484375 302.841796875 Q 336.2095947265625 298.7525329589844 341.31878662109375 295.9776916503906 Q 342.19464111328125 295.39349365234375 343.2164611816406 295.2474670410156 Q 344.23828125 295.1014404296875 345.2601318359375 295.1014404296875 Q 348.47161865234375 295.1014404296875 351.02618408203125 296.78094482421875 Q 353.5807800292969 298.46044921875 353.5807800292969 301.23529052734375M 305.26263427734375 330.0060729980469 Q 306.7223815917969 330.0060729980469 308.328125 329.86004638671875 Q 309.9338684082031 329.7139892578125 311.6855773925781 329.4219055175781 Q 314.6051025390625 328.9837646484375 318.2545166015625 328.1075134277344 Q 321.9039306640625 327.2312316894531 325.4803466796875 326.2819519042969 Q 329.0567626953125 325.3326416015625 331.39239501953125 324.74847412109375 L 331.39239501953125 324.74847412109375 Q 335.77166748046875 323.1419677734375 339.8590087890625 321.09735107421875 Q 343.94635009765625 319.052734375 347.59576416015625 316.7160339355469 Q 354.3106689453125 312.480712890625 358.908935546875 306.8580322265625 Q 363.5071716308594 301.23529052734375 367.15655517578125 294.0791015625 Q 368.32440185546875 291.888427734375 368.32440185546875 289.2596435546875 Q 368.32440185546875 285.17041015625 365.3318786621094 282.10345458984375 Q 362.33935546875 279.0364990234375 358.1060485839844 279.0364990234375 Q 354.0187072753906 279.0364990234375 350.36932373046875 280.5699462890625 Q 346.71990966796875 282.10345458984375 344.82220458984375 283.85595703125 Q 337.8153381347656 290.427978515625 331.31939697265625 297.4381103515625 Q 324.8234558105469 304.4482727050781 318.5464782714844 311.75048828125 Q 314.31317138671875 312.62677001953125 309.4959411621094 313.0649108886719 L 309.3499755859375 312.91888427734375 Q 310.9556884765625 309.4137878417969 311.9775390625 306.8580322265625 Q 312.9993896484375 304.30224609375 313.5832824707031 302.5496826171875 Q 313.729248046875 302.2575988769531 313.729248046875 300.79718017578125 Q 313.729248046875 300.06695556640625 313.5832824707031 300.06695556640625 Q 313.43731689453125 300.06695556640625 312.9993896484375 300.50506591796875 Q 310.9556884765625 305.32452392578125 306.7223815917969 307.6612548828125 Q 300.1534423828125 311.3123779296875 273.1478271484375 313.0649108886719 L 269.9363708496094 332.3428039550781 Q 273.8777160644531 331.9046630859375 279.716796875 330.95538330078125 Q 285.55584716796875 330.0060729980469 291.1759033203125 328.6916809082031 Q 296.7960205078125 327.3772888183594 299.71551513671875 326.20892333984375 Q 299.5695495605469 326.6470642089844 299.5695495605469 327.5233154296875 Q 299.5695495605469 329.12982177734375 301.3942565917969 329.56793212890625 Q 303.2189636230469 330.0060729980469 305.26263427734375 330.0060729980469" />
    <path stroke-width="0" fill="rgb(0, 0, 0)" opacity="1.0" d="M 319.13037109375 318.46856689453125 Q 318.69244384765625 318.46856689453125 318.5464782714844 318.7606506347656 Q 317.524658203125 320.36712646484375 315.8459167480469 322.92291259765625 Q 314.16717529296875 325.47869873046875 311.9775390625 329.27587890625 Q 309.78790283203125 332.9269714355469 308.1821594238281 336.72412109375 Q 306.576416015625 340.52130126953125 305.4085998535156 344.4645080566406 Q 303.8028564453125 349.5760498046875 303.8028564453125 353.81134033203125 Q 303.8028564453125 355.1257629394531 304.0218200683594 356.36712646484375 Q 304.24078369140625 357.6085205078125 304.38677978515625 358.7768859863281 Q 305.4085998535156 363.30426025390625 310.225830078125 365.20281982421875 Q 315.04302978515625 367.1014099121094 321.6119689941406 367.1014099121094 Q 328.326904296875 367.1014099121094 337.08544921875 365.348876953125 Q 343.6543884277344 364.1805419921875 349.20147705078125 363.085205078125 Q 354.74859619140625 361.9898681640625 359.27386474609375 360.967529296875 Q 359.12786865234375 361.9898681640625 358.616943359375 363.5233154296875 Q 358.1060485839844 365.0567932128906 358.1060485839844 366.22515869140625 Q 358.1060485839844 367.1014099121094 359.27386474609375 367.1014099121094 L 359.5657958984375 367.1014099121094 Q 361.3175048828125 366.3711853027344 361.97442626953125 363.8154296875 Q 362.6313171386719 361.2596435546875 363.2152099609375 359.7991943359375 Q 374.7473449707031 356.8782958984375 384.6007385253906 354.54156494140625 Q 394.45416259765625 352.2048645019531 405.25640869140625 348.8458251953125 L 414.598876953125 328.83770751953125 Q 412.701171875 329.86004638671875 410.803466796875 329.86004638671875 Q 408.1759033203125 329.86004638671875 406.13226318359375 327.5233154296875 Q 404.6724853515625 322.11968994140625 402.044921875 317.59228515625 Q 400.43914794921875 314.67138671875 397.5926513671875 312.18865966796875 Q 394.74609375 309.70587158203125 390.65875244140625 309.70587158203125 Q 388.03118896484375 309.70587158203125 385.40362548828125 311.45843505859375 Q 381.0243225097656 314.5253601074219 377.37493896484375 319.782958984375 Q 373.72552490234375 325.0405578613281 371.02496337890625 331.02838134765625 Q 368.32440185546875 337.0162353515625 366.42669677734375 342.56591796875 Q 361.90142822265625 343.15008544921875 356.7922668457031 344.0993957519531 Q 351.68310546875 345.0486755371094 345.9900207519531 346.217041015625 Q 341.6107177734375 347.09332275390625 337.74237060546875 347.6044616699219 Q 333.87396240234375 348.1156005859375 330.37054443359375 348.1156005859375 Q 324.531494140625 348.1156005859375 320.59014892578125 346.5091247558594 Q 316.6487731933594 344.90264892578125 314.7510986328125 341.10546875 Q 313.875244140625 339.4989929199219 313.875244140625 337.1622619628906 Q 313.875244140625 333.94927978515625 315.407958984375 329.56793212890625 Q 316.94073486328125 325.1866149902344 319.71429443359375 319.4908752441406 Q 319.8602600097656 319.19879150390625 319.8602600097656 318.90667724609375 Q 319.8602600097656 318.46856689453125 319.13037109375 318.46856689453125M 391.24267578125 336.13995361328125 Q 391.3886413574219 336.4320373535156 391.3886413574219 336.87017822265625 Q 391.3886413574219 337.60040283203125 390.5127868652344 337.8924865722656 L 369.93011474609375 341.98175048828125 Q 371.5358581542969 338.1845703125 373.068603515625 334.7525329589844 Q 374.60137939453125 331.32049560546875 377.5208740234375 328.6916809082031 Q 379.5645751953125 326.93914794921875 381.60821533203125 326.93914794921875 Q 383.7978515625 326.93914794921875 385.841552734375 328.545654296875 Q 387.447265625 329.7139892578125 388.76104736328125 331.68560791015625 Q 390.0748596191406 333.6571960449219 391.24267578125 336.13995361328125" />
  </svg>