<svg xmlns="" width="600" height="600"><path stroke-width="0" fill="rgb(0, 0, 0)" opacity="1.0" d="M 239.71926879882812 297.0 L 239.71926879882812 298.31439208984375 Q 232.71240234375 304.59429931640625 222.20211791992188 308.82958984375 Q 215.48721313476562 311.45843505859375 207.75045776367188 311.45843505859375 Q 203.37118530273438 311.45843505859375 198.699951171875 310.5821533203125 Q 191.10916137695312 307.3691711425781 191.10916137695312 301.0892333984375 Q 191.10916137695312 298.60650634765625 192.13101196289062 296.12371826171875 Q 194.1746826171875 290.7200927734375 196.29132080078125 286.19268798828125 Q 198.40798950195312 281.665283203125 200.3056640625 277.283935546875 L 211.10791015625 284.586181640625 Q 212.27572631835938 282.54156494140625 212.85964965820312 281.44622802734375 Q 213.44354248046875 280.35089111328125 214.02743530273438 279.32861328125 Q 214.61135864257812 278.3062744140625 215.7791748046875 276.26165771484375 Q 216.94696044921875 274.217041015625 218.11477661132812 272.099365234375 Q 219.2825927734375 269.98175048828125 220.45040893554688 267.79107666015625 Q 217.5308837890625 265.7464599609375 214.61135864257812 263.77484130859375 Q 211.69183349609375 261.80322265625 208.77230834960938 259.9046630859375 L 206.5826416015625 258.736328125 Q 204.68496704101562 261.94927978515625 202.56829833984375 265.60040283203125 Q 200.45166015625 269.25152587890625 198.699951171875 272.61053466796875 Q 192.2769775390625 284.29412841796875 189.13848876953125 293.56793212890625 Q 186.0 302.841796875 186.0 309.70587158203125 Q 186.0 317.44622802734375 188.7005615234375 322.703857421875 Q 191.401123046875 327.9614562988281 195.9263916015625 330.1521301269531 Q 197.97006225585938 331.1744384765625 200.3056640625 331.75860595703125 Q 202.64129638671875 332.3428039550781 205.12289428710938 332.3428039550781 Q 207.75045776367188 332.3428039550781 210.66998291015625 331.68560791015625 Q 213.58950805664062 331.02838134765625 216.80099487304688 330.0060729980469 Q 229.06301879882812 325.3326416015625 237.09170532226562 313.941162109375 Q 245.266357421875 301.96551513671875 247.89395141601562 287.21502685546875 Q 248.33187866210938 285.17041015625 248.47784423828125 282.979736328125 Q 248.62384033203125 280.7890625 248.62384033203125 278.744384765625 Q 248.62384033203125 268.6673583984375 243.95257568359375 258.88232421875 L 236.06985473632812 277.137939453125 Q 237.52963256835938 281.665283203125 238.62445068359375 286.3387451171875 Q 239.71926879882812 291.01214599609375 239.71926879882812 297.0" />
    <path stroke-width="0" fill="rgb(0, 0, 0)" opacity="1.0" d="M 264.2432861328125 249.09735107421875 L 269.9363708496094 332.3428039550781 L 278.9869079589844 315.1095275878906 L 273.4397888183594 232.0101318359375 L 264.2432861328125 249.09735107421875" />
    <path stroke-width="0" fill="rgb(0, 0, 0)" opacity="1.0" d="M 353.5827941894531 302.672607421875 Q 353.48199462890625 303.9360656738281 352.20458984375 304.260009765625 Q 343.3716125488281 307.03411865234375 334.5945739746094 308.7663879394531 Q 325.2145080566406 309.86358642578125 316.8093566894531 311.32159423828125 Q 320.62127685546875 307.2666015625 325.7187805175781 301.78863525390625 Q 330.8410949707031 296.7373046875 337.530517578125 293.7265319824219 Q 338.6810607910156 292.9778137207031 339.7959899902344 292.95703125 Q 342.97039794921875 293.1575622558594 344.4144287109375 293.50421142578125 Q 348.8307189941406 294.0311584472656 351.30108642578125 295.69781494140625 Q 354.5042724609375 298.2597961425781 353.5827941894531 302.672607421875M 300.6236267089844 337.74462890625 Q 304.5783996582031 336.8212890625 319.4412841796875 327.9537048339844 Q 312.6455383300781 327.2561950683594 306.053955078125 332.59893798828125 Q 318.1168212890625 334.18109130859375 328.26025390625 323.8321228027344 Q 330.98138427734375 329.6544189453125 339.5491027832031 347.25274658203125 Q 324.6655578613281 371.1825866699219 329.8158874511719 371.8055419921875 L 340.1517028808594 326.3865966796875 Q 352.18023681640625 313.20147705078125 327.44940185546875 310.86181640625 Q 319.5623779296875 315.9645080566406 340.56793212890625 330.164306640625 Q 358.1306457519531 311.15032958984375 325.2158203125 298.51763916015625 Q 354.9317321777344 285.2969665527344 371.5716857910156 313.3360290527344 Q 384.3827209472656 316.414794921875 367.5753173828125 281.7825012207031 Q 373.1171569824219 268.3067321777344 363.52679443359375 284.8680725097656 Q 364.4035949707031 277.78179931640625 359.3511047363281 278.7110290527344 Q 360.30621337890625 284.068603515625 355.95416259765625 278.8622131347656 Q 361.87939453125 277.76220703125 347.91748046875 282.60479736328125 Q 321.8833312988281 292.1024169921875 348.4807434082031 302.3770446777344 Q 331.3109436035156 314.6893005371094 317.8885498046875 307.5411376953125 Q 320.3580322265625 328.0456848144531 323.28424072265625 315.65570068359375 L 317.7466125488281 308.1063232421875 Q 313.2471618652344 301.4637451171875 318.48736572265625 299.311279296875 Q 313.88580322265625 300.7674255371094 313.7044372558594 301.3393249511719 Q 318.2554016113281 296.24053955078125 316.7386779785156 315.07550048828125 Q 311.9789733886719 305.37939453125 307.7112121582031 302.7767639160156 Q 311.79046630859375 303.8831481933594 314.82489013671875 298.0039978027344 Q 307.64483642578125 305.744873046875 299.1268005371094 309.2220153808594 Q 289.8922424316406 291.5386047363281 271.5510559082031 312.71746826171875 L 265.90216064453125 374.52777099609375 Q 285.5419616699219 307.9369201660156 279.9347839355469 353.89349365234375 Q 287.6041259765625 339.8227233886719 294.58929443359375 321.0177001953125 Q 297.6672668457031 311.5036315917969 286.2192687988281 325.0645446777344 Q 290.931884765625 330.52325439453125 297.7599792480469 314.4700622558594 Q 296.0636291503906 315.46771240234375 309.6738586425781 335.3409423828125 Q 302.6940612792969 334.9299621582031 300.6236267089844 337.74462890625" />
  <path stroke-width="0" fill="rgb(0, 0, 0)" opacity="1.0" d="M 319.13037109375 318.46856689453125 Q 318.69244384765625 318.46856689453125 318.5464782714844 318.7606506347656 Q 317.524658203125 320.36712646484375 315.8459167480469 322.92291259765625 Q 314.16717529296875 325.47869873046875 311.9775390625 329.27587890625 Q 309.78790283203125 332.9269714355469 308.1821594238281 336.72412109375 Q 306.576416015625 340.52130126953125 305.4085998535156 344.4645080566406 Q 303.8028564453125 349.5760498046875 303.8028564453125 353.81134033203125 Q 303.8028564453125 355.1257629394531 304.0218200683594 356.36712646484375 Q 304.24078369140625 357.6085205078125 304.38677978515625 358.7768859863281 Q 305.4085998535156 363.30426025390625 310.225830078125 365.20281982421875 Q 315.04302978515625 367.1014099121094 321.6119689941406 367.1014099121094 Q 328.326904296875 367.1014099121094 337.08544921875 365.348876953125 Q 343.6543884277344 364.1805419921875 349.20147705078125 363.085205078125 Q 354.74859619140625 361.9898681640625 359.27386474609375 360.967529296875 Q 359.12786865234375 361.9898681640625 358.616943359375 363.5233154296875 Q 358.1060485839844 365.0567932128906 358.1060485839844 366.22515869140625 Q 358.1060485839844 367.1014099121094 359.27386474609375 367.1014099121094 L 359.5657958984375 367.1014099121094 Q 361.3175048828125 366.3711853027344 361.97442626953125 363.8154296875 Q 362.6313171386719 361.2596435546875 363.2152099609375 359.7991943359375 Q 374.7473449707031 356.8782958984375 384.6007385253906 354.54156494140625 Q 394.45416259765625 352.2048645019531 405.25640869140625 348.8458251953125 L 414.598876953125 328.83770751953125 Q 412.701171875 329.86004638671875 410.803466796875 329.86004638671875 Q 408.1759033203125 329.86004638671875 406.13226318359375 327.5233154296875 Q 404.6724853515625 322.11968994140625 402.044921875 317.59228515625 Q 400.43914794921875 314.67138671875 397.5926513671875 312.18865966796875 Q 394.74609375 309.70587158203125 390.65875244140625 309.70587158203125 Q 388.03118896484375 309.70587158203125 385.40362548828125 311.45843505859375 Q 381.0243225097656 314.5253601074219 377.37493896484375 319.782958984375 Q 373.72552490234375 325.0405578613281 371.02496337890625 331.02838134765625 Q 368.32440185546875 337.0162353515625 366.42669677734375 342.56591796875 Q 361.90142822265625 343.15008544921875 356.7922668457031 344.0993957519531 Q 351.68310546875 345.0486755371094 345.9900207519531 346.217041015625 Q 341.6107177734375 347.09332275390625 337.74237060546875 347.6044616699219 Q 333.87396240234375 348.1156005859375 330.37054443359375 348.1156005859375 Q 324.531494140625 348.1156005859375 320.59014892578125 346.5091247558594 Q 316.6487731933594 344.90264892578125 314.7510986328125 341.10546875 Q 313.875244140625 339.4989929199219 313.875244140625 337.1622619628906 Q 313.875244140625 333.94927978515625 315.407958984375 329.56793212890625 Q 316.94073486328125 325.1866149902344 319.71429443359375 319.4908752441406 Q 319.8602600097656 319.19879150390625 319.8602600097656 318.90667724609375 Q 319.8602600097656 318.46856689453125 319.13037109375 318.46856689453125M 391.24267578125 336.13995361328125 Q 391.3886413574219 336.4320373535156 391.3886413574219 336.87017822265625 Q 391.3886413574219 337.60040283203125 390.5127868652344 337.8924865722656 L 369.93011474609375 341.98175048828125 Q 371.5358581542969 338.1845703125 373.068603515625 334.7525329589844 Q 374.60137939453125 331.32049560546875 377.5208740234375 328.6916809082031 Q 379.5645751953125 326.93914794921875 381.60821533203125 326.93914794921875 Q 383.7978515625 326.93914794921875 385.841552734375 328.545654296875 Q 387.447265625 329.7139892578125 388.76104736328125 331.68560791015625 Q 390.0748596191406 333.6571960449219 391.24267578125 336.13995361328125" />
  </svg>