<svg xmlns="" width="600" height="600"><path stroke-width="0" fill="rgb(0, 0, 0)" opacity="1.0" d="M 239.71926879882812 297.0 L 239.71926879882812 298.31439208984375 Q 232.71240234375 304.59429931640625 222.20211791992188 308.82958984375 Q 215.48721313476562 311.45843505859375 207.75045776367188 311.45843505859375 Q 203.37118530273438 311.45843505859375 198.699951171875 310.5821533203125 Q 191.10916137695312 307.3691711425781 191.10916137695312 301.0892333984375 Q 191.10916137695312 298.60650634765625 192.13101196289062 296.12371826171875 Q 194.1746826171875 290.7200927734375 196.29132080078125 286.19268798828125 Q 198.40798950195312 281.665283203125 200.3056640625 277.283935546875 L 211.10791015625 284.586181640625 Q 212.27572631835938 282.54156494140625 212.85964965820312 281.44622802734375 Q 213.44354248046875 280.35089111328125 214.02743530273438 279.32861328125 Q 214.61135864257812 278.3062744140625 215.7791748046875 276.26165771484375 Q 216.94696044921875 274.217041015625 218.11477661132812 272.099365234375 Q 219.2825927734375 269.98175048828125 220.45040893554688 267.79107666015625 Q 217.5308837890625 265.7464599609375 214.61135864257812 263.77484130859375 Q 211.69183349609375 261.80322265625 208.77230834960938 259.9046630859375 L 206.5826416015625 258.736328125 Q 204.68496704101562 261.94927978515625 202.56829833984375 265.60040283203125 Q 200.45166015625 269.25152587890625 198.699951171875 272.61053466796875 Q 192.2769775390625 284.29412841796875 189.13848876953125 293.56793212890625 Q 186.0 302.841796875 186.0 309.70587158203125 Q 186.0 317.44622802734375 188.7005615234375 322.703857421875 Q 191.401123046875 327.9614562988281 195.9263916015625 330.1521301269531 Q 197.97006225585938 331.1744384765625 200.3056640625 331.75860595703125 Q 202.64129638671875 332.3428039550781 205.12289428710938 332.3428039550781 Q 207.75045776367188 332.3428039550781 210.66998291015625 331.68560791015625 Q 213.58950805664062 331.02838134765625 216.80099487304688 330.0060729980469 Q 229.06301879882812 325.3326416015625 237.09170532226562 313.941162109375 Q 245.266357421875 301.96551513671875 247.89395141601562 287.21502685546875 Q 248.33187866210938 285.17041015625 248.47784423828125 282.979736328125 Q 248.62384033203125 280.7890625 248.62384033203125 278.744384765625 Q 248.62384033203125 268.6673583984375 243.95257568359375 258.88232421875 L 236.06985473632812 277.137939453125 Q 237.52963256835938 281.665283203125 238.62445068359375 286.3387451171875 Q 239.71926879882812 291.01214599609375 239.71926879882812 297.0" />
    <path stroke-width="0" fill="rgb(0, 0, 0)" opacity="1.0" d="M 255.72268676757812 251.64920043945312 L 280.18951416015625 323.99627685546875 L 284.5526123046875 309.1202697753906 L 260.30426025390625 234.1134033203125 L 255.72268676757812 251.64920043945312" />
  <path stroke-width="0" fill="rgb(0, 0, 0)" opacity="1.0" d="M 353.5807800292969 301.23529052734375 Q 353.5807800292969 302.2575988769531 352.7049255371094 302.69573974609375 Q 346.4279479980469 305.7626953125 339.2021179199219 307.51519775390625 Q 331.9762878417969 309.26776123046875 324.23956298828125 310.8742370605469 Q 328.180908203125 306.9310302734375 332.19525146484375 302.841796875 Q 336.2095947265625 298.7525329589844 341.31878662109375 295.9776916503906 Q 342.19464111328125 295.39349365234375 343.2164611816406 295.2474670410156 Q 344.23828125 295.1014404296875 345.2601318359375 295.1014404296875 Q 348.47161865234375 295.1014404296875 351.02618408203125 296.78094482421875 Q 353.5807800292969 298.46044921875 353.5807800292969 301.23529052734375M 305.26263427734375 330.0060729980469 Q 306.7223815917969 330.0060729980469 308.328125 329.86004638671875 Q 309.9338684082031 329.7139892578125 311.6855773925781 329.4219055175781 Q 314.6051025390625 328.9837646484375 318.2545166015625 328.1075134277344 Q 321.9039306640625 327.2312316894531 325.4803466796875 326.2819519042969 Q 329.0567626953125 325.3326416015625 331.39239501953125 324.74847412109375 L 331.39239501953125 324.74847412109375 Q 335.77166748046875 323.1419677734375 339.8590087890625 321.09735107421875 Q 343.94635009765625 319.052734375 347.59576416015625 316.7160339355469 Q 354.3106689453125 312.480712890625 358.908935546875 306.8580322265625 Q 363.5071716308594 301.23529052734375 367.15655517578125 294.0791015625 Q 368.32440185546875 291.888427734375 368.32440185546875 289.2596435546875 Q 368.32440185546875 285.17041015625 365.3318786621094 282.10345458984375 Q 362.33935546875 279.0364990234375 358.1060485839844 279.0364990234375 Q 354.0187072753906 279.0364990234375 350.36932373046875 280.5699462890625 Q 346.71990966796875 282.10345458984375 344.82220458984375 283.85595703125 Q 337.8153381347656 290.427978515625 331.31939697265625 297.4381103515625 Q 324.8234558105469 304.4482727050781 318.5464782714844 311.75048828125 Q 314.31317138671875 312.62677001953125 309.4959411621094 313.0649108886719 L 309.3499755859375 312.91888427734375 Q 310.9556884765625 309.4137878417969 311.9775390625 306.8580322265625 Q 312.9993896484375 304.30224609375 313.5832824707031 302.5496826171875 Q 313.729248046875 302.2575988769531 313.729248046875 300.79718017578125 Q 313.729248046875 300.06695556640625 313.5832824707031 300.06695556640625 Q 313.43731689453125 300.06695556640625 312.9993896484375 300.50506591796875 Q 310.9556884765625 305.32452392578125 306.7223815917969 307.6612548828125 Q 300.1534423828125 311.3123779296875 273.1478271484375 313.0649108886719 L 269.9363708496094 332.3428039550781 Q 273.8777160644531 331.9046630859375 279.716796875 330.95538330078125 Q 285.55584716796875 330.0060729980469 291.1759033203125 328.6916809082031 Q 296.7960205078125 327.3772888183594 299.71551513671875 326.20892333984375 Q 299.5695495605469 326.6470642089844 299.5695495605469 327.5233154296875 Q 299.5695495605469 329.12982177734375 301.3942565917969 329.56793212890625 Q 303.2189636230469 330.0060729980469 305.26263427734375 330.0060729980469" />
    <path stroke-width="0" fill="rgb(0, 0, 0)" opacity="1.0" d="M 319.13037109375 318.46856689453125 Q 318.69244384765625 318.46856689453125 318.5464782714844 318.7606506347656 Q 317.524658203125 320.36712646484375 315.8459167480469 322.92291259765625 Q 314.16717529296875 325.47869873046875 311.9775390625 329.27587890625 Q 309.78790283203125 332.9269714355469 308.1821594238281 336.72412109375 Q 306.576416015625 340.52130126953125 305.4085998535156 344.4645080566406 Q 303.8028564453125 349.5760498046875 303.8028564453125 353.81134033203125 Q 303.8028564453125 355.1257629394531 304.0218200683594 356.36712646484375 Q 304.24078369140625 357.6085205078125 304.38677978515625 358.7768859863281 Q 305.4085998535156 363.30426025390625 310.225830078125 365.20281982421875 Q 315.04302978515625 367.1014099121094 321.6119689941406 367.1014099121094 Q 328.326904296875 367.1014099121094 337.08544921875 365.348876953125 Q 343.6543884277344 364.1805419921875 349.20147705078125 363.085205078125 Q 354.74859619140625 361.9898681640625 359.27386474609375 360.967529296875 Q 359.12786865234375 361.9898681640625 358.616943359375 363.5233154296875 Q 358.1060485839844 365.0567932128906 358.1060485839844 366.22515869140625 Q 358.1060485839844 367.1014099121094 359.27386474609375 367.1014099121094 L 359.5657958984375 367.1014099121094 Q 361.3175048828125 366.3711853027344 361.97442626953125 363.8154296875 Q 362.6313171386719 361.2596435546875 363.2152099609375 359.7991943359375 Q 374.7473449707031 356.8782958984375 384.6007385253906 354.54156494140625 Q 394.45416259765625 352.2048645019531 405.25640869140625 348.8458251953125 L 414.598876953125 328.83770751953125 Q 412.701171875 329.86004638671875 410.803466796875 329.86004638671875 Q 408.1759033203125 329.86004638671875 406.13226318359375 327.5233154296875 Q 404.6724853515625 322.11968994140625 402.044921875 317.59228515625 Q 400.43914794921875 314.67138671875 397.5926513671875 312.18865966796875 Q 394.74609375 309.70587158203125 390.65875244140625 309.70587158203125 Q 388.03118896484375 309.70587158203125 385.40362548828125 311.45843505859375 Q 381.0243225097656 314.5253601074219 377.37493896484375 319.782958984375 Q 373.72552490234375 325.0405578613281 371.02496337890625 331.02838134765625 Q 368.32440185546875 337.0162353515625 366.42669677734375 342.56591796875 Q 361.90142822265625 343.15008544921875 356.7922668457031 344.0993957519531 Q 351.68310546875 345.0486755371094 345.9900207519531 346.217041015625 Q 341.6107177734375 347.09332275390625 337.74237060546875 347.6044616699219 Q 333.87396240234375 348.1156005859375 330.37054443359375 348.1156005859375 Q 324.531494140625 348.1156005859375 320.59014892578125 346.5091247558594 Q 316.6487731933594 344.90264892578125 314.7510986328125 341.10546875 Q 313.875244140625 339.4989929199219 313.875244140625 337.1622619628906 Q 313.875244140625 333.94927978515625 315.407958984375 329.56793212890625 Q 316.94073486328125 325.1866149902344 319.71429443359375 319.4908752441406 Q 319.8602600097656 319.19879150390625 319.8602600097656 318.90667724609375 Q 319.8602600097656 318.46856689453125 319.13037109375 318.46856689453125M 391.24267578125 336.13995361328125 Q 391.3886413574219 336.4320373535156 391.3886413574219 336.87017822265625 Q 391.3886413574219 337.60040283203125 390.5127868652344 337.8924865722656 L 369.93011474609375 341.98175048828125 Q 371.5358581542969 338.1845703125 373.068603515625 334.7525329589844 Q 374.60137939453125 331.32049560546875 377.5208740234375 328.6916809082031 Q 379.5645751953125 326.93914794921875 381.60821533203125 326.93914794921875 Q 383.7978515625 326.93914794921875 385.841552734375 328.545654296875 Q 387.447265625 329.7139892578125 388.76104736328125 331.68560791015625 Q 390.0748596191406 333.6571960449219 391.24267578125 336.13995361328125" />
  </svg>