<?xml version="1.0" ?>
<svg xmlns="http://www.w3.org/2000/svg" version="1.1" width="600" height="600">
  <defs/>
  <g>
    <path stroke-width="0" fill="rgb(0, 0, 0)" opacity="1.0" d="M 239.71926879882812 297.0 L 239.71926879882812 298.31439208984375 Q 232.71240234375 304.59429931640625 222.20211791992188 308.82958984375 Q 215.48721313476562 311.45843505859375 207.75045776367188 311.45843505859375 Q 203.37118530273438 311.45843505859375 198.699951171875 310.5821533203125 Q 191.10916137695312 307.3691711425781 191.10916137695312 301.0892333984375 Q 191.10916137695312 298.60650634765625 192.13101196289062 296.12371826171875 Q 194.1746826171875 290.7200927734375 196.29132080078125 286.19268798828125 Q 198.40798950195312 281.665283203125 200.3056640625 277.283935546875 L 211.10791015625 284.586181640625 Q 212.27572631835938 282.54156494140625 212.85964965820312 281.44622802734375 Q 213.44354248046875 280.35089111328125 214.02743530273438 279.32861328125 Q 214.61135864257812 278.3062744140625 215.7791748046875 276.26165771484375 Q 216.94696044921875 274.217041015625 218.11477661132812 272.099365234375 Q 219.2825927734375 269.98175048828125 220.45040893554688 267.79107666015625 Q 217.5308837890625 265.7464599609375 214.61135864257812 263.77484130859375 Q 211.69183349609375 261.80322265625 208.77230834960938 259.9046630859375 L 206.5826416015625 258.736328125 Q 204.68496704101562 261.94927978515625 202.56829833984375 265.60040283203125 Q 200.45166015625 269.25152587890625 198.699951171875 272.61053466796875 Q 192.2769775390625 284.29412841796875 189.13848876953125 293.56793212890625 Q 186.0 302.841796875 186.0 309.70587158203125 Q 186.0 317.44622802734375 188.7005615234375 322.703857421875 Q 191.401123046875 327.9614562988281 195.9263916015625 330.1521301269531 Q 197.97006225585938 331.1744384765625 200.3056640625 331.75860595703125 Q 202.64129638671875 332.3428039550781 205.12289428710938 332.3428039550781 Q 207.75045776367188 332.3428039550781 210.66998291015625 331.68560791015625 Q 213.58950805664062 331.02838134765625 216.80099487304688 330.0060729980469 Q 229.06301879882812 325.3326416015625 237.09170532226562 313.941162109375 Q 245.266357421875 301.96551513671875 247.89395141601562 287.21502685546875 Q 248.33187866210938 285.17041015625 248.47784423828125 282.979736328125 Q 248.62384033203125 280.7890625 248.62384033203125 278.744384765625 Q 248.62384033203125 268.6673583984375 243.95257568359375 258.88232421875 L 236.06985473632812 277.137939453125 Q 237.52963256835938 281.665283203125 238.62445068359375 286.3387451171875 Q 239.71926879882812 291.01214599609375 239.71926879882812 297.0"/>
    <path stroke-width="0" fill="rgb(0, 0, 0)" opacity="1.0" d="M 264.2432861328125 249.09735107421875 L 269.9363708496094 332.3428039550781 L 278.9869079589844 315.1095275878906 L 273.4397888183594 232.0101318359375 L 264.2432861328125 249.09735107421875"/>
    <path stroke-width="0" fill="rgb(0, 0, 0)" opacity="1.0" d="M 353.5807800292969 301.23529052734375 Q 353.5807800292969 302.2575988769531 352.7049255371094 302.69573974609375 Q 346.4279479980469 305.7626953125 339.2021179199219 307.51519775390625 Q 331.9762878417969 309.26776123046875 324.23956298828125 310.8742370605469 Q 328.180908203125 306.9310302734375 332.19525146484375 302.841796875 Q 336.2095947265625 298.7525329589844 341.31878662109375 295.9776916503906 Q 342.19464111328125 295.39349365234375 343.2164611816406 295.2474670410156 Q 344.23828125 295.1014404296875 345.2601318359375 295.1014404296875 Q 348.47161865234375 295.1014404296875 351.02618408203125 296.78094482421875 Q 353.5807800292969 298.46044921875 353.5807800292969 301.23529052734375M 305.26263427734375 330.0060729980469 Q 306.7223815917969 330.0060729980469 308.328125 329.86004638671875 Q 309.9338684082031 329.7139892578125 311.6855773925781 329.4219055175781 Q 314.6051025390625 328.9837646484375 318.2545166015625 328.1075134277344 Q 321.9039306640625 327.2312316894531 325.4803466796875 326.2819519042969 Q 329.0567626953125 325.3326416015625 331.39239501953125 324.74847412109375 L 331.39239501953125 324.74847412109375 Q 335.77166748046875 323.1419677734375 339.8590087890625 321.09735107421875 Q 343.94635009765625 319.052734375 347.59576416015625 316.7160339355469 Q 354.3106689453125 312.480712890625 358.908935546875 306.8580322265625 Q 363.5071716308594 301.23529052734375 367.15655517578125 294.0791015625 Q 368.32440185546875 291.888427734375 368.32440185546875 289.2596435546875 Q 368.32440185546875 285.17041015625 365.3318786621094 282.10345458984375 Q 362.33935546875 279.0364990234375 358.1060485839844 279.0364990234375 Q 354.0187072753906 279.0364990234375 350.36932373046875 280.5699462890625 Q 346.71990966796875 282.10345458984375 344.82220458984375 283.85595703125 Q 337.8153381347656 290.427978515625 331.31939697265625 297.4381103515625 Q 324.8234558105469 304.4482727050781 318.5464782714844 311.75048828125 Q 314.31317138671875 312.62677001953125 309.4959411621094 313.0649108886719 L 309.3499755859375 312.91888427734375 Q 310.9556884765625 309.4137878417969 311.9775390625 306.8580322265625 Q 312.9993896484375 304.30224609375 313.5832824707031 302.5496826171875 Q 313.729248046875 302.2575988769531 313.729248046875 300.79718017578125 Q 313.729248046875 300.06695556640625 313.5832824707031 300.06695556640625 Q 313.43731689453125 300.06695556640625 312.9993896484375 300.50506591796875 Q 310.9556884765625 305.32452392578125 306.7223815917969 307.6612548828125 Q 300.1534423828125 311.3123779296875 273.1478271484375 313.0649108886719 L 269.9363708496094 332.3428039550781 Q 273.8777160644531 331.9046630859375 279.716796875 330.95538330078125 Q 285.55584716796875 330.0060729980469 291.1759033203125 328.6916809082031 Q 296.7960205078125 327.3772888183594 299.71551513671875 326.20892333984375 Q 299.5695495605469 326.6470642089844 299.5695495605469 327.5233154296875 Q 299.5695495605469 329.12982177734375 301.3942565917969 329.56793212890625 Q 303.2189636230469 330.0060729980469 305.26263427734375 330.0060729980469"/>
    <path stroke-width="0" fill="rgb(0, 0, 0)" opacity="1.0" d="M 326.81573486328125 307.9227294921875 Q 326.759033203125 308.33685302734375 326.3324890136719 308.70709228515625 Q 325.9510498046875 310.62933349609375 324.99530029296875 314.5848388671875 Q 324.1922607421875 316.2593994140625 322.43231201171875 318.24652099609375 Q 320.05029296875 319.267333984375 316.2907409667969 320.2950439453125 Q 311.4015808105469 322.828125 307.8111572265625 326.0927734375 Q 308.32537841796875 331.6732177734375 311.36920166015625 338.0772705078125 Q 312.6358642578125 346.37042236328125 316.75067138671875 353.60052490234375 Q 303.8028564453125 360.794677734375 305.66937255859375 366.4405517578125 Q 309.41229248046875 364.4764404296875 314.0845031738281 369.3302001953125 Q 315.83123779296875 369.48309326171875 338.15850830078125 338.95233154296875 Q 327.88836669921875 339.99920654296875 335.50726318359375 342.41259765625 Q 344.45111083984375 348.40704345703125 352.23895263671875 350.1103515625 Q 363.01507568359375 351.65191650390625 371.71978759765625 350.93206787109375 Q 372.76434326171875 357.15869140625 371.7857666015625 361.8271484375 Q 368.0921630859375 372.08160400390625 365.8912353515625 377.2696533203125 Q 365.9415283203125 381.00445556640625 369.7198486328125 381.40362548828125 L 370.7596435546875 381.32275390625 Q 378.58258056640625 376.20111083984375 380.8846435546875 361.82427978515625 Q 380.66204833984375 350.3748779296875 381.1558837890625 349.5821533203125 Q 385.667724609375 328.2081298828125 393.330322265625 322.16925048828125 Q 394.42144775390625 321.83148193359375 414.598876953125 333.5587158203125 L 413.29620361328125 315.400390625 Q 411.24053955078125 318.97662353515625 411.72119140625 319.04864501953125 Q 414.30462646484375 318.930419921875 411.1566162109375 313.21136474609375 Q 409.1490478515625 308.88330078125 408.0654296875 304.1475830078125 Q 407.2271728515625 296.1959228515625 406.42926025390625 295.40362548828125 Q 403.4337158203125 296.53082275390625 402.8216552734375 299.57647705078125 Q 396.450927734375 297.13543701171875 390.38140869140625 297.9521484375 Q 387.11895751953125 299.749267578125 381.259765625 302.630615234375 Q 374.67437744140625 305.865966796875 370.7127685546875 312.734619140625 Q 367.64453125 316.283203125 366.84954833984375 323.97772216796875 Q 365.0582275390625 326.56732177734375 364.04620361328125 327.3382568359375 Q 360.56585693359375 328.76678466796875 354.5128173828125 330.65655517578125 Q 351.6455078125 329.873046875 350.484619140625 329.3792724609375 Q 346.2281494140625 326.20404052734375 339.37127685546875 320.64837646484375 Q 330.850830078125 316.8341064453125 322.7225646972656 319.13037109375 Q 321.7642822265625 319.2711181640625 319.0824890136719 329.2138671875 Q 318.42791748046875 324.305419921875 319.161376953125 323.4306640625 Q 321.6826171875 321.4957275390625 324.6178283691406 319.47601318359375 Q 325.8677978515625 316.05084228515625 328.28814697265625 308.98944091796875 Q 328.12176513671875 308.64422607421875 327.586669921875 308.77191162109375 Q 328.187255859375 308.0755615234375 326.81573486328125 307.9227294921875M 391.24267578125 336.13995361328125 Q 391.3886413574219 336.4320373535156 391.3886413574219 336.87017822265625 Q 391.3886413574219 337.60040283203125 390.5127868652344 337.8924865722656 L 369.93011474609375 341.98175048828125 Q 371.5358581542969 338.1845703125 373.068603515625 334.7525329589844 Q 374.60137939453125 331.32049560546875 377.5208740234375 328.6916809082031 Q 379.5645751953125 326.93914794921875 381.60821533203125 326.93914794921875 Q 383.7978515625 326.93914794921875 385.841552734375 328.545654296875 Q 387.447265625 329.7139892578125 388.76104736328125 331.68560791015625 Q 390.0748596191406 333.6571960449219 391.24267578125 336.13995361328125"/>
  </g>
</svg>
